<?xml version="1.0" standalone="no"?>
<!DOCTYPE svg PUBLIC "-//W3C//DTD SVG 20010904//EN"
 "http://www.w3.org/TR/2001/REC-SVG-20010904/DTD/svg10.dtd">
<svg version="1.0" xmlns="http://www.w3.org/2000/svg"
 width="512.000000pt" height="512.000000pt" viewBox="0 0 512.000000 512.000000"
 preserveAspectRatio="xMidYMid meet">

<g transform="translate(0.000000,512.000000) scale(0.100000,-0.100000)"
fill="#000000" stroke="none">
<path d="M3611 4454 c-76 -73 -132 -98 -236 -102 -84 -4 -107 0 -313 52 -297
75 -415 90 -657 83 -139 -4 -216 -11 -287 -26 -537 -116 -838 -456 -898 -1015
-46 -426 160 -798 571 -1033 129 -73 277 -128 492 -183 106 -26 226 -60 267
-75 365 -133 590 -380 590 -650 0 -227 -142 -389 -397 -456 -103 -27 -359 -37
-470 -19 -159 25 -352 110 -516 227 -109 77 -325 294 -419 420 -42 56 -102
144 -133 197 -32 53 -59 96 -60 96 -2 0 -1 -8 1 -17 2 -10 47 -308 99 -663 53
-355 98 -651 101 -659 3 -9 19 1 52 33 57 56 130 94 198 102 56 7 115 -3 296
-52 259 -71 296 -76 618 -81 339 -5 434 4 605 61 216 73 361 160 506 305 175
175 281 373 336 631 27 126 24 346 -5 464 -76 302 -287 546 -617 711 -192 95
-349 144 -636 196 -258 46 -495 161 -598 289 -106 132 -132 284 -86 488 44
188 179 323 372 368 172 41 438 -10 643 -123 202 -110 397 -302 496 -486 l32
-61 6 35 c10 57 97 970 94 978 -2 4 -23 -11 -47 -35z"/>
</g>
</svg>
